<svg width="128" height="129" viewBox="0 0 128 129" fill="none" xmlns="http://www.w3.org/2000/svg">
<path d="M2 100.5H6V104.5H2V100.5Z" fill="#212121"/>
<path d="M2 96.5H6V100.5H2V96.5Z" fill="#212121"/>
<path d="M2 92.5H6V96.5H2V92.5Z" fill="#212121"/>
<path d="M2 88.5H6V92.5H2V88.5Z" fill="#212121"/>
<path d="M2 84.5H6V88.5H2V84.5Z" fill="#212121"/>
<path d="M2 80.5H6V84.5H2V80.5Z" fill="#212121"/>
<path d="M2 76.5H6V80.5H2V76.5Z" fill="#212121"/>
<path d="M6 76.5H10V80.5H6V76.5Z" fill="#212121"/>
<path d="M6 80.5H10V84.5H6V80.5Z" fill="#212121"/>
<path d="M6 84.5H10V88.5H6V84.5Z" fill="#212121"/>
<path d="M6 88.5H10V92.5H6V88.5Z" fill="#212121"/>
<path d="M6 92.5H10V96.5H6V92.5Z" fill="#212121"/>
<path d="M6 96.5H10V100.5H6V96.5Z" fill="#212121"/>
<path d="M6 100.5H10V104.5H6V100.5Z" fill="#212121"/>
<path d="M6 104.5H10V108.5H6V104.5Z" fill="#212121"/>
<path d="M6 108.5H10V112.5H6V108.5Z" fill="#212121"/>
<path d="M10 108.5H14V112.5H10V108.5Z" fill="#212121"/>
<path d="M10 104.5H14V108.5H10V104.5Z" fill="#212121"/>
<path d="M10 100.5H14V104.5H10V100.5Z" fill="#212121"/>
<path d="M10 96.5H14V100.5H10V96.5Z" fill="#212121"/>
<path d="M10 92.5H14V96.5H10V92.5Z" fill="#212121"/>
<path d="M10 88.5H14V92.5H10V88.5Z" fill="#212121"/>
<path d="M10 84.5H14V88.5H10V84.5Z" fill="#212121"/>
<path d="M10 80.5H14V84.5H10V80.5Z" fill="#212121"/>
<path d="M10 76.5H14V80.5H10V76.5Z" fill="#212121"/>
<path d="M10 72.5H14V76.5H10V72.5Z" fill="#212121"/>
<path d="M6 72.5H10V76.5H6V72.5Z" fill="#212121"/>
<path d="M10 68.5H14V72.5H10V68.5Z" fill="#212121"/>
<path d="M6 68.5H10V72.5H6V68.5Z" fill="#212121"/>
<path d="M10 64.5H14V68.5H10V64.5Z" fill="#212121"/>
<path d="M10 60.5H14V64.5H10V60.5Z" fill="#212121"/>
<path d="M14 60.5H18V64.5H14V60.5Z" fill="#212121"/>
<path d="M14 64.5H18V68.5H14V64.5Z" fill="#212121"/>
<path d="M14 68.5H18V72.5H14V68.5Z" fill="#212121"/>
<path d="M14 72.5H18V76.5H14V72.5Z" fill="#212121"/>
<path d="M14 76.5H18V80.5H14V76.5Z" fill="#212121"/>
<path d="M14 80.5H18V84.5H14V80.5Z" fill="#212121"/>
<path d="M18 80.5H22V84.5H18V80.5Z" fill="#212121"/>
<path d="M18 84.5H22V88.5H18V84.5Z" fill="#212121"/>
<path d="M18 88.5H22V92.5H18V88.5Z" fill="#212121"/>
<path d="M18 92.5H22V96.5H18V92.5Z" fill="#212121"/>
<path d="M18 96.5H22V100.5H18V96.5Z" fill="#212121"/>
<path d="M22 80.5H26V84.5H22V80.5Z" fill="#212121"/>
<path d="M22 84.5H26V88.5H22V84.5Z" fill="#212121"/>
<path d="M22 88.5H26V92.5H22V88.5Z" fill="#212121"/>
<path d="M22 92.5H26V96.5H22V92.5Z" fill="#212121"/>
<path d="M22 96.5H26V100.5H22V96.5Z" fill="#212121"/>
<path d="M22 100.5H26V104.5H22V100.5Z" fill="#212121"/>
<path d="M22 104.5H26V108.5H22V104.5Z" fill="#212121"/>
<path d="M18 104.5H22V108.5H18V104.5Z" fill="#212121"/>
<path d="M14 104.5H18V108.5H14V104.5Z" fill="#212121"/>
<path d="M14 100.5H18V104.5H14V100.5Z" fill="#212121"/>
<path d="M14 96.5H18V100.5H14V96.5Z" fill="#212121"/>
<path d="M26 80.5H30V84.5H26V80.5Z" fill="#212121"/>
<path d="M26 84.5H30V88.5H26V84.5Z" fill="#212121"/>
<path d="M26 88.5H30V92.5H26V88.5Z" fill="#212121"/>
<path d="M26 96.5H30V100.5H26V96.5Z" fill="#212121"/>
<path d="M26 92.5H30V96.5H26V92.5Z" fill="#212121"/>
<path d="M26 100.5H30V104.5H26V100.5Z" fill="#212121"/>
<path d="M26 104.5H30V108.5H26V104.5Z" fill="#212121"/>
<path d="M30 80.5H34V84.5H30V80.5Z" fill="#212121"/>
<path d="M30 84.5H34V88.5H30V84.5Z" fill="#212121"/>
<path d="M30 96.5H34V100.5H30V96.5Z" fill="#212121"/>
<path d="M30 88.5H34V92.5H30V88.5Z" fill="#212121"/>
<path d="M30 92.5H34V96.5H30V92.5Z" fill="#212121"/>
<path d="M30 100.5H34V104.5H30V100.5Z" fill="#212121"/>
<path d="M30 104.5H34V108.5H30V104.5Z" fill="#212121"/>
<path d="M34 80.5H38V84.5H34V80.5Z" fill="#212121"/>
<path d="M34 96.5H38V100.5H34V96.5Z" fill="#212121"/>
<path d="M34 84.5H38V88.5H34V84.5Z" fill="#212121"/>
<path d="M34 88.5H38V92.5H34V88.5Z" fill="#212121"/>
<path d="M34 92.5H38V96.5H34V92.5Z" fill="#212121"/>
<path d="M34 100.5H38V104.5H34V100.5Z" fill="#212121"/>
<path d="M34 104.5H38V108.5H34V104.5Z" fill="#212121"/>
<path d="M38 96.5H42V100.5H38V96.5Z" fill="#212121"/>
<path d="M38 80.5H42V84.5H38V80.5Z" fill="#212121"/>
<path d="M38 84.5H42V88.5H38V84.5Z" fill="#212121"/>
<path d="M38 88.5H42V92.5H38V88.5Z" fill="#212121"/>
<path d="M38 92.5H42V96.5H38V92.5Z" fill="#212121"/>
<path d="M42 96.5H46V100.5H42V96.5Z" fill="#212121"/>
<path d="M38 100.5H42V104.5H38V100.5Z" fill="#212121"/>
<path d="M38 104.5H42V108.5H38V104.5Z" fill="#212121"/>
<path d="M42 80.5H46V84.5H42V80.5Z" fill="#212121"/>
<path d="M42 84.5H46V88.5H42V84.5Z" fill="#212121"/>
<path d="M42 88.5H46V92.5H42V88.5Z" fill="#212121"/>
<path d="M46 96.5H50V100.5H46V96.5Z" fill="#212121"/>
<path d="M42 92.5H46V96.5H42V92.5Z" fill="#212121"/>
<path d="M42 100.5H46V104.5H42V100.5Z" fill="#212121"/>
<path d="M42 104.5H46V108.5H42V104.5Z" fill="#212121"/>
<path d="M46 80.5H50V84.5H46V80.5Z" fill="#212121"/>
<path d="M46 84.5H50V88.5H46V84.5Z" fill="#212121"/>
<path d="M50 96.5H54V100.5H50V96.5Z" fill="#212121"/>
<path d="M46 88.5H50V92.5H46V88.5Z" fill="#212121"/>
<path d="M46 92.5H50V96.5H46V92.5Z" fill="#212121"/>
<path d="M46 100.5H50V104.5H46V100.5Z" fill="#212121"/>
<path d="M46 104.5H50V108.5H46V104.5Z" fill="#212121"/>
<path d="M50 80.5H54V84.5H50V80.5Z" fill="#212121"/>
<path d="M54 96.5H58V100.5H54V96.5Z" fill="#212121"/>
<path d="M50 84.5H54V88.5H50V84.5Z" fill="#212121"/>
<path d="M50 88.5H54V92.5H50V88.5Z" fill="#212121"/>
<path d="M50 92.5H54V96.5H50V92.5Z" fill="#212121"/>
<path d="M50 100.5H54V104.5H50V100.5Z" fill="#212121"/>
<path d="M50 104.5H54V108.5H50V104.5Z" fill="#212121"/>
<path d="M58 96.5H62V100.5H58V96.5Z" fill="#212121"/>
<path d="M54 80.5H58V84.5H54V80.5Z" fill="#212121"/>
<path d="M54 84.5H58V88.5H54V84.5Z" fill="#212121"/>
<path d="M54 88.5H58V92.5H54V88.5Z" fill="#212121"/>
<path d="M54 92.5H58V96.5H54V92.5Z" fill="#212121"/>
<path d="M62 96.5H66V100.5H62V96.5Z" fill="#212121"/>
<path d="M54 100.5H58V104.5H54V100.5Z" fill="#212121"/>
<path d="M54 104.5H58V108.5H54V104.5Z" fill="#212121"/>
<path d="M58 80.5H62V84.5H58V80.5Z" fill="#212121"/>
<path d="M58 84.5H62V88.5H58V84.5Z" fill="#212121"/>
<path d="M58 88.5H62V92.5H58V88.5Z" fill="#212121"/>
<path d="M66 96.5H70V100.5H66V96.5Z" fill="#212121"/>
<path d="M58 92.5H62V96.5H58V92.5Z" fill="#212121"/>
<path d="M58 100.5H62V104.5H58V100.5Z" fill="#212121"/>
<path d="M58 104.5H62V108.5H58V104.5Z" fill="#212121"/>
<path d="M62 80.5H66V84.5H62V80.5Z" fill="#212121"/>
<path d="M62 84.5H66V88.5H62V84.5Z" fill="#212121"/>
<path d="M70 96.5H74V100.5H70V96.5Z" fill="#212121"/>
<path d="M62 88.5H66V92.5H62V88.5Z" fill="#212121"/>
<path d="M62 92.5H66V96.5H62V92.5Z" fill="#212121"/>
<path d="M62 100.5H66V104.5H62V100.5Z" fill="#212121"/>
<path d="M62 104.5H66V108.5H62V104.5Z" fill="#212121"/>
<path d="M66 80.5H70V84.5H66V80.5Z" fill="#212121"/>
<path d="M74 96.5H78V100.5H74V96.5Z" fill="#212121"/>
<path d="M66 84.5H70V88.5H66V84.5Z" fill="#212121"/>
<path d="M66 88.5H70V92.5H66V88.5Z" fill="#212121"/>
<path d="M66 92.5H70V96.5H66V92.5Z" fill="#212121"/>
<path d="M66 100.5H70V104.5H66V100.5Z" fill="#212121"/>
<path d="M66 104.5H70V108.5H66V104.5Z" fill="#212121"/>
<path d="M70 80.5H74V84.5H70V80.5Z" fill="#212121"/>
<path d="M70 84.5H74V88.5H70V84.5Z" fill="#212121"/>
<path d="M70 88.5H74V92.5H70V88.5Z" fill="#212121"/>
<path d="M70 92.5H74V96.5H70V92.5Z" fill="#212121"/>
<path d="M70 100.5H74V104.5H70V100.5Z" fill="#212121"/>
<path d="M70 104.5H74V108.5H70V104.5Z" fill="#212121"/>
<path d="M74 80.5H78V84.5H74V80.5Z" fill="#212121"/>
<path d="M74 84.5H78V88.5H74V84.5Z" fill="#212121"/>
<path d="M74 88.5H78V92.5H74V88.5Z" fill="#212121"/>
<path d="M74 92.5H78V96.5H74V92.5Z" fill="#212121"/>
<path d="M74 100.5H78V104.5H74V100.5Z" fill="#212121"/>
<path d="M70 108.5H74V112.5H70V108.5Z" fill="#212121"/>
<path d="M66 108.5H70V112.5H66V108.5Z" fill="#212121"/>
<path d="M66 112.5H70V116.5H66V112.5Z" fill="#212121"/>
<path d="M66 116.5H70V120.5H66V116.5Z" fill="#212121"/>
<path d="M62 108.5H66V112.5H62V108.5Z" fill="#212121"/>
<path d="M62 112.5H66V116.5H62V112.5Z" fill="#212121"/>
<path d="M62 116.5H66V120.5H62V116.5Z" fill="#212121"/>
<path d="M58 108.5H62V112.5H58V108.5Z" fill="#212121"/>
<path d="M58 112.5H62V116.5H58V112.5Z" fill="#212121"/>
<path d="M58 116.5H62V120.5H58V116.5Z" fill="#212121"/>
<path d="M58 120.5H62V124.5H58V120.5Z" fill="#212121"/>
<path d="M54 108.5H58V112.5H54V108.5Z" fill="#212121"/>
<path d="M54 112.5H58V116.5H54V112.5Z" fill="#212121"/>
<path d="M54 116.5H58V120.5H54V116.5Z" fill="#212121"/>
<path d="M54 120.5H58V124.5H54V120.5Z" fill="#212121"/>
<path d="M50 108.5H54V112.5H50V108.5Z" fill="#212121"/>
<path d="M50 112.5H54V116.5H50V112.5Z" fill="#212121"/>
<path d="M50 116.5H54V120.5H50V116.5Z" fill="#212121"/>
<path d="M50 120.5H54V124.5H50V120.5Z" fill="#212121"/>
<path d="M50 124.5H54V128.5H50V124.5Z" fill="#212121"/>
<path d="M46 108.5H50V112.5H46V108.5Z" fill="#212121"/>
<path d="M46 112.5H50V116.5H46V112.5Z" fill="#212121"/>
<path d="M46 116.5H50V120.5H46V116.5Z" fill="#212121"/>
<path d="M46 120.5H50V124.5H46V120.5Z" fill="#212121"/>
<path d="M46 124.5H50V128.5H46V124.5Z" fill="#212121"/>
<path d="M42 108.5H46V112.5H42V108.5Z" fill="#212121"/>
<path d="M42 112.5H46V116.5H42V112.5Z" fill="#212121"/>
<path d="M42 116.5H46V120.5H42V116.5Z" fill="#212121"/>
<path d="M42 120.5H46V124.5H42V120.5Z" fill="#212121"/>
<path d="M42 124.5H46V128.5H42V124.5Z" fill="#212121"/>
<path d="M38 108.5H42V112.5H38V108.5Z" fill="#212121"/>
<path d="M38 112.5H42V116.5H38V112.5Z" fill="#212121"/>
<path d="M38 116.5H42V120.5H38V116.5Z" fill="#212121"/>
<path d="M38 120.5H42V124.5H38V120.5Z" fill="#212121"/>
<path d="M38 124.5H42V128.5H38V124.5Z" fill="#212121"/>
<path d="M34 108.5H38V112.5H34V108.5Z" fill="#212121"/>
<path d="M34 112.5H38V116.5H34V112.5Z" fill="#212121"/>
<path d="M34 116.5H38V120.5H34V116.5Z" fill="#212121"/>
<path d="M34 120.5H38V124.5H34V120.5Z" fill="#212121"/>
<path d="M34 124.5H38V128.5H34V124.5Z" fill="#212121"/>
<path d="M30 108.5H34V112.5H30V108.5Z" fill="#212121"/>
<path d="M30 112.5H34V116.5H30V112.5Z" fill="#212121"/>
<path d="M26 112.5H30V116.5H26V112.5Z" fill="#212121"/>
<path d="M22 112.5H26V116.5H22V112.5Z" fill="#212121"/>
<path d="M22 108.5H26V112.5H22V108.5Z" fill="#212121"/>
<path d="M18 112.5H22V116.5H18V112.5Z" fill="#212121"/>
<path d="M18 108.5H22V112.5H18V108.5Z" fill="#212121"/>
<path d="M14 112.5H18V116.5H14V112.5Z" fill="#212121"/>
<path d="M14 108.5H18V112.5H14V108.5Z" fill="#212121"/>
<path d="M10 112.5H14V116.5H10V112.5Z" fill="#212121"/>
<path d="M30 116.5H34V120.5H30V116.5Z" fill="#212121"/>
<path d="M26 116.5H30V120.5H26V116.5Z" fill="#212121"/>
<path d="M22 116.5H26V120.5H22V116.5Z" fill="#212121"/>
<path d="M18 116.5H22V120.5H18V116.5Z" fill="#212121"/>
<path d="M14 116.5H18V120.5H14V116.5Z" fill="#212121"/>
<path d="M10 116.5H14V120.5H10V116.5Z" fill="#212121"/>
<path d="M30 120.5H34V124.5H30V120.5Z" fill="#212121"/>
<path d="M26 120.5H30V124.5H26V120.5Z" fill="#212121"/>
<path d="M22 120.5H26V124.5H22V120.5Z" fill="#212121"/>
<path d="M18 120.5H22V124.5H18V120.5Z" fill="#212121"/>
<path d="M30 124.5H34V128.5H30V124.5Z" fill="#212121"/>
<path d="M26 124.5H30V128.5H26V124.5Z" fill="#212121"/>
<path d="M74 76.5H78V80.5H74V76.5Z" fill="#212121"/>
<path d="M70 76.5H74V80.5H70V76.5Z" fill="#212121"/>
<path d="M66 76.5H70V80.5H66V76.5Z" fill="#212121"/>
<path d="M62 76.5H66V80.5H62V76.5Z" fill="#212121"/>
<path d="M58 76.5H62V80.5H58V76.5Z" fill="#212121"/>
<path d="M54 76.5H58V80.5H54V76.5Z" fill="#212121"/>
<path d="M50 76.5H54V80.5H50V76.5Z" fill="#212121"/>
<path d="M46 76.5H50V80.5H46V76.5Z" fill="#212121"/>
<path d="M42 76.5H46V80.5H42V76.5Z" fill="#212121"/>
<path d="M38 76.5H42V80.5H38V76.5Z" fill="#212121"/>
<path d="M34 76.5H38V80.5H34V76.5Z" fill="#212121"/>
<path d="M30 76.5H34V80.5H30V76.5Z" fill="#212121"/>
<path d="M26 76.5H30V80.5H26V76.5Z" fill="#212121"/>
<path d="M22 76.5H26V80.5H22V76.5Z" fill="#212121"/>
<path d="M70 72.5H74V76.5H70V72.5Z" fill="#212121"/>
<path d="M70 68.5H74V72.5H70V68.5Z" fill="#212121"/>
<path d="M18 60.5H22V64.5H18V60.5Z" fill="#212121"/>
<path d="M18 64.5H22V68.5H18V64.5Z" fill="#212121"/>
<path d="M18 68.5H22V72.5H18V68.5Z" fill="#212121"/>
<path d="M18 72.5H22V76.5H18V72.5Z" fill="#212121"/>
<path d="M22 60.5H26V64.5H22V60.5Z" fill="#212121"/>
<path d="M22 64.5H26V68.5H22V64.5Z" fill="#212121"/>
<path d="M22 68.5H26V72.5H22V68.5Z" fill="#212121"/>
<path d="M22 72.5H26V76.5H22V72.5Z" fill="#212121"/>
<path d="M26 60.5H30V64.5H26V60.5Z" fill="#212121"/>
<path d="M26 64.5H30V68.5H26V64.5Z" fill="#212121"/>
<path d="M26 68.5H30V72.5H26V68.5Z" fill="#212121"/>
<path d="M26 72.5H30V76.5H26V72.5Z" fill="#212121"/>
<path d="M30 60.5H34V64.5H30V60.5Z" fill="#212121"/>
<path d="M30 64.5H34V68.5H30V64.5Z" fill="#212121"/>
<path d="M30 68.5H34V72.5H30V68.5Z" fill="#212121"/>
<path d="M30 72.5H34V76.5H30V72.5Z" fill="#212121"/>
<path d="M34 60.5H38V64.5H34V60.5Z" fill="#212121"/>
<path d="M34 64.5H38V68.5H34V64.5Z" fill="#212121"/>
<path d="M34 68.5H38V72.5H34V68.5Z" fill="#212121"/>
<path d="M34 72.5H38V76.5H34V72.5Z" fill="#212121"/>
<path d="M38 60.5H42V64.5H38V60.5Z" fill="#212121"/>
<path d="M38 64.5H42V68.5H38V64.5Z" fill="#212121"/>
<path d="M38 68.5H42V72.5H38V68.5Z" fill="#212121"/>
<path d="M38 72.5H42V76.5H38V72.5Z" fill="#212121"/>
<path d="M42 60.5H46V64.5H42V60.5Z" fill="#212121"/>
<path d="M42 64.5H46V68.5H42V64.5Z" fill="#212121"/>
<path d="M42 68.5H46V72.5H42V68.5Z" fill="#212121"/>
<path d="M42 72.5H46V76.5H42V72.5Z" fill="#212121"/>
<path d="M46 60.5H50V64.5H46V60.5Z" fill="#212121"/>
<path d="M46 64.5H50V68.5H46V64.5Z" fill="#212121"/>
<path d="M46 68.5H50V72.5H46V68.5Z" fill="#212121"/>
<path d="M46 72.5H50V76.5H46V72.5Z" fill="#212121"/>
<path d="M50 60.5H54V64.5H50V60.5Z" fill="#212121"/>
<path d="M50 64.5H54V68.5H50V64.5Z" fill="#212121"/>
<path d="M50 68.5H54V72.5H50V68.5Z" fill="#212121"/>
<path d="M50 72.5H54V76.5H50V72.5Z" fill="#212121"/>
<path d="M54 60.5H58V64.5H54V60.5Z" fill="#212121"/>
<path d="M54 64.5H58V68.5H54V64.5Z" fill="#212121"/>
<path d="M54 68.5H58V72.5H54V68.5Z" fill="#212121"/>
<path d="M54 72.5H58V76.5H54V72.5Z" fill="#212121"/>
<path d="M58 60.5H62V64.5H58V60.5Z" fill="#212121"/>
<path d="M58 64.5H62V68.5H58V64.5Z" fill="#212121"/>
<path d="M58 68.5H62V72.5H58V68.5Z" fill="#212121"/>
<path d="M58 72.5H62V76.5H58V72.5Z" fill="#212121"/>
<path d="M58 56.5H62V60.5H58V56.5Z" fill="#212121"/>
<path d="M54 56.5H58V60.5H54V56.5Z" fill="#212121"/>
<path d="M50 56.5H54V60.5H50V56.5Z" fill="#212121"/>
<path d="M46 56.5H50V60.5H46V56.5Z" fill="#212121"/>
<path d="M42 56.5H46V60.5H42V56.5Z" fill="#212121"/>
<path d="M38 56.5H42V60.5H38V56.5Z" fill="#212121"/>
<path d="M34 56.5H38V60.5H34V56.5Z" fill="#212121"/>
<path d="M30 56.5H34V60.5H30V56.5Z" fill="#212121"/>
<path d="M26 56.5H30V60.5H26V56.5Z" fill="#212121"/>
<path d="M26 52.5H30V56.5H26V52.5Z" fill="#212121"/>
<path d="M26 48.5H30V52.5H26V48.5Z" fill="#212121"/>
<path d="M26 44.5H30V48.5H26V44.5Z" fill="#212121"/>
<path d="M30 52.5H34V56.5H30V52.5Z" fill="#212121"/>
<path d="M30 48.5H34V52.5H30V48.5Z" fill="#212121"/>
<path d="M30 44.5H34V48.5H30V44.5Z" fill="#212121"/>
<path d="M34 52.5H38V56.5H34V52.5Z" fill="#212121"/>
<path d="M34 48.5H38V52.5H34V48.5Z" fill="#212121"/>
<path d="M34 44.5H38V48.5H34V44.5Z" fill="#212121"/>
<path d="M38 52.5H42V56.5H38V52.5Z" fill="#212121"/>
<path d="M38 48.5H42V52.5H38V48.5Z" fill="#212121"/>
<path d="M38 44.5H42V48.5H38V44.5Z" fill="#212121"/>
<path d="M38 40.5H42V44.5H38V40.5Z" fill="#212121"/>
<path d="M38 36.5H42V40.5H38V36.5Z" fill="#212121"/>
<path d="M38 32.5H42V36.5H38V32.5Z" fill="#212121"/>
<path d="M42 28.5H46V32.5H42V28.5Z" fill="#212121"/>
<path d="M46 24.5H50V28.5H46V24.5Z" fill="#212121"/>
<path d="M50 24.5H54V28.5H50V24.5Z" fill="#212121"/>
<path d="M54 24.5H58V28.5H54V24.5Z" fill="#212121"/>
<path d="M58 24.5H62V28.5H58V24.5Z" fill="#212121"/>
<path d="M62 24.5H66V28.5H62V24.5Z" fill="#212121"/>
<path d="M66 28.5H70V32.5H66V28.5Z" fill="#212121"/>
<path d="M74 32.5H78V36.5H74V32.5Z" fill="#212121"/>
<path d="M78 32.5H82V36.5H78V32.5Z" fill="#212121"/>
<path d="M82 32.5H86V36.5H82V32.5Z" fill="#212121"/>
<path d="M82 40.5H86V44.5H82V40.5Z" fill="#212121"/>
<path d="M78 44.5H82V48.5H78V44.5Z" fill="#212121"/>
<path d="M74 48.5H78V52.5H74V48.5Z" fill="#212121"/>
<path d="M86 28.5H90V32.5H86V28.5Z" fill="#212121"/>
<path d="M90 28.5H94V32.5H90V28.5Z" fill="#212121"/>
<path d="M94 28.5H98V32.5H94V28.5Z" fill="#212121"/>
<path d="M94 40.5H98V44.5H94V40.5Z" fill="#212121"/>
<path d="M106 36.5H110V40.5H106V36.5Z" fill="#212121"/>
<path d="M106 24.5H110V28.5H106V24.5Z" fill="#212121"/>
<path d="M102 12.5H106V16.5H102V12.5Z" fill="#212121"/>
<path d="M90 16.5H94V20.5H90V16.5Z" fill="#212121"/>
<path d="M82 20.5H86V24.5H82V20.5Z" fill="#212121"/>
<path d="M74 16.5H78V20.5H74V16.5Z" fill="#212121"/>
<path d="M66 12.5H70V16.5H66V12.5Z" fill="#212121"/>
<path d="M86 8.5H90V12.5H86V8.5Z" fill="#212121"/>
<path d="M82 0.5H86V4.5H82V0.5Z" fill="#212121"/>
<path d="M106 8.5H110V12.5H106V8.5Z" fill="#212121"/>
<path d="M110 4.5H114V8.5H110V4.5Z" fill="#212121"/>
<path d="M114 0.5H118V4.5H114V0.5Z" fill="#212121"/>
<path d="M114 24.5H118V28.5H114V24.5Z" fill="#212121"/>
<path d="M122 24.5H126V28.5H122V24.5Z" fill="#212121"/>
<path d="M110 40.5H114V44.5H110V40.5Z" fill="#212121"/>
<path d="M114 44.5H118V48.5H114V44.5Z" fill="#212121"/>
<path d="M118 48.5H122V52.5H118V48.5Z" fill="#212121"/>
<path d="M94 48.5H98V52.5H94V48.5Z" fill="#212121"/>
<path d="M94 56.5H98V60.5H94V56.5Z" fill="#212121"/>
<path d="M70 28.5H74V32.5H70V28.5Z" fill="#212121"/>
<path d="M42 52.5H46V56.5H42V52.5Z" fill="#212121"/>
<path d="M42 48.5H46V52.5H42V48.5Z" fill="#212121"/>
<path d="M42 44.5H46V48.5H42V44.5Z" fill="#212121"/>
<path d="M46 52.5H50V56.5H46V52.5Z" fill="#212121"/>
<path d="M46 48.5H50V52.5H46V48.5Z" fill="#212121"/>
<path d="M46 44.5H50V48.5H46V44.5Z" fill="#212121"/>
<path d="M50 52.5H54V56.5H50V52.5Z" fill="#212121"/>
<path d="M50 48.5H54V52.5H50V48.5Z" fill="#212121"/>
<path d="M50 44.5H54V48.5H50V44.5Z" fill="#212121"/>
<path d="M22 56.5H26V60.5H22V56.5Z" fill="#212121"/>
<path d="M18 56.5H22V60.5H18V56.5Z" fill="#212121"/>
<path d="M62 60.5H66V64.5H62V60.5Z" fill="#212121"/>
<path d="M62 64.5H66V68.5H62V64.5Z" fill="#212121"/>
<path d="M62 68.5H66V72.5H62V68.5Z" fill="#212121"/>
<path d="M62 72.5H66V76.5H62V72.5Z" fill="#212121"/>
<path d="M66 60.5H70V64.5H66V60.5Z" fill="#212121"/>
<path d="M66 64.5H70V68.5H66V64.5Z" fill="#212121"/>
<path d="M66 68.5H70V72.5H66V68.5Z" fill="#212121"/>
<path d="M66 72.5H70V76.5H66V72.5Z" fill="#212121"/>
</svg>
