<svg width="128" height="129" viewBox="0 0 128 129" fill="none" xmlns="http://www.w3.org/2000/svg">
<path d="M20 38.5H24V42.5H20V38.5Z" fill="#212121"/>
<path d="M16 34.5H20V38.5H16V34.5Z" fill="#212121"/>
<path d="M20 30.5H24V34.5H20V30.5Z" fill="#212121"/>
<path d="M24 26.5H28V30.5H24V26.5Z" fill="#212121"/>
<path d="M28 22.5H32V26.5H28V22.5Z" fill="#212121"/>
<path d="M32 18.5H36V22.5H32V18.5Z" fill="#212121"/>
<path d="M36 14.5H40V18.5H36V14.5Z" fill="#212121"/>
<path d="M36 10.5H40V14.5H36V10.5Z" fill="#212121"/>
<path d="M40 6.5H44V10.5H40V6.5Z" fill="#212121"/>
<path d="M44 6.5H48V10.5H44V6.5Z" fill="#212121"/>
<path d="M48 6.5H52V10.5H48V6.5Z" fill="#212121"/>
<path d="M52 2.5H56V6.5H52V2.5Z" fill="#212121"/>
<path d="M56 2.5H60V6.5H56V2.5Z" fill="#212121"/>
<path d="M60 2.5H64V6.5H60V2.5Z" fill="#212121"/>
<path d="M64 2.5H68V6.5H64V2.5Z" fill="#212121"/>
<path d="M68 2.5H72V6.5H68V2.5Z" fill="#212121"/>
<path d="M72 2.5H76V6.5H72V2.5Z" fill="#212121"/>
<path d="M72 6.5H76V10.5H72V6.5Z" fill="#212121"/>
<path d="M76 6.5H80V10.5H76V6.5Z" fill="#212121"/>
<path d="M76 10.5H80V14.5H76V10.5Z" fill="#212121"/>
<path d="M80 14.5H84V18.5H80V14.5Z" fill="#212121"/>
<path d="M76 18.5H80V22.5H76V18.5Z" fill="#212121"/>
<path d="M72 22.5H76V26.5H72V22.5Z" fill="#212121"/>
<path d="M68 18.5H72V22.5H68V18.5Z" fill="#212121"/>
<path d="M72 14.5H76V18.5H72V14.5Z" fill="#212121"/>
<path d="M80 6.5H84V10.5H80V6.5Z" fill="#212121"/>
<path d="M84 6.5H88V10.5H84V6.5Z" fill="#212121"/>
<path d="M88 10.5H92V14.5H88V10.5Z" fill="#212121"/>
<path d="M92 10.5H96V14.5H92V10.5Z" fill="#212121"/>
<path d="M96 14.5H100V18.5H96V14.5Z" fill="#212121"/>
<path d="M100 18.5H104V22.5H100V18.5Z" fill="#212121"/>
<path d="M104 22.5H108V26.5H104V22.5Z" fill="#212121"/>
<path d="M108 26.5H112V30.5H108V26.5Z" fill="#212121"/>
<path d="M112 30.5H116V34.5H112V30.5Z" fill="#212121"/>
<path d="M112 34.5H116V38.5H112V34.5Z" fill="#212121"/>
<path d="M112 38.5H116V42.5H112V38.5Z" fill="#212121"/>
<path d="M116 38.5H120V42.5H116V38.5Z" fill="#212121"/>
<path d="M116 42.5H120V46.5H116V42.5Z" fill="#212121"/>
<path d="M108 42.5H112V46.5H108V42.5Z" fill="#212121"/>
<path d="M104 38.5H108V42.5H104V38.5Z" fill="#212121"/>
<path d="M108 34.5H112V38.5H108V34.5Z" fill="#212121"/>
<path d="M104 30.5H108V34.5H104V30.5Z" fill="#212121"/>
<path d="M100 26.5H104V30.5H100V26.5Z" fill="#212121"/>
<path d="M96 22.5H100V26.5H96V22.5Z" fill="#212121"/>
<path d="M80 30.5H84V34.5H80V30.5Z" fill="#212121"/>
<path d="M88 46.5H92V50.5H88V46.5Z" fill="#212121"/>
<path d="M100 42.5H104V46.5H100V42.5Z" fill="#212121"/>
<path d="M96 38.5H100V42.5H96V38.5Z" fill="#212121"/>
<path d="M100 34.5H104V38.5H100V34.5Z" fill="#212121"/>
<path d="M96 30.5H100V34.5H96V30.5Z" fill="#212121"/>
<path d="M92 26.5H96V30.5H92V26.5Z" fill="#212121"/>
<path d="M92 42.5H96V46.5H92V42.5Z" fill="#212121"/>
<path d="M88 38.5H92V42.5H88V38.5Z" fill="#212121"/>
<path d="M92 34.5H96V38.5H92V34.5Z" fill="#212121"/>
<path d="M88 30.5H92V34.5H88V30.5Z" fill="#212121"/>
<path d="M84 26.5H88V30.5H84V26.5Z" fill="#212121"/>
<path d="M84 42.5H88V46.5H84V42.5Z" fill="#212121"/>
<path d="M32 10.5H36V14.5H32V10.5Z" fill="#212121"/>
<path d="M28 14.5H32V18.5H28V14.5Z" fill="#212121"/>
<path d="M24 18.5H28V22.5H24V18.5Z" fill="#212121"/>
<path d="M20 22.5H24V26.5H20V22.5Z" fill="#212121"/>
<path d="M16 26.5H20V30.5H16V26.5Z" fill="#212121"/>
<path d="M12 30.5H16V34.5H12V30.5Z" fill="#212121"/>
<path d="M12 34.5H16V38.5H12V34.5Z" fill="#212121"/>
<path d="M8 38.5H12V42.5H8V38.5Z" fill="#212121"/>
<path d="M8 42.5H12V46.5H8V42.5Z" fill="#212121"/>
<path d="M8 46.5H12V50.5H8V46.5Z" fill="#212121"/>
<path d="M4 50.5H8V54.5H4V50.5Z" fill="#212121"/>
<path d="M4 54.5H8V58.5H4V54.5Z" fill="#212121"/>
<path d="M4 58.5H8V62.5H4V58.5Z" fill="#212121"/>
<path d="M4 62.5H8V66.5H4V62.5Z" fill="#212121"/>
<path d="M4 66.5H8V70.5H4V66.5Z" fill="#212121"/>
<path d="M4 70.5H8V74.5H4V70.5Z" fill="#212121"/>
<path d="M4 74.5H8V78.5H4V74.5Z" fill="#212121"/>
<path d="M8 78.5H12V82.5H8V78.5Z" fill="#212121"/>
<path d="M8 82.5H12V86.5H8V82.5Z" fill="#212121"/>
<path d="M8 86.5H12V90.5H8V86.5Z" fill="#212121"/>
<path d="M12 90.5H16V94.5H12V90.5Z" fill="#212121"/>
<path d="M12 94.5H16V98.5H12V94.5Z" fill="#212121"/>
<path d="M16 98.5H20V102.5H16V98.5Z" fill="#212121"/>
<path d="M20 102.5H24V106.5H20V102.5Z" fill="#212121"/>
<path d="M24 106.5H28V110.5H24V106.5Z" fill="#212121"/>
<path d="M28 110.5H32V114.5H28V110.5Z" fill="#212121"/>
<path d="M32 114.5H36V118.5H32V114.5Z" fill="#212121"/>
<path d="M36 114.5H40V118.5H36V114.5Z" fill="#212121"/>
<path d="M40 118.5H44V122.5H40V118.5Z" fill="#212121"/>
<path d="M44 118.5H48V122.5H44V118.5Z" fill="#212121"/>
<path d="M48 118.5H52V122.5H48V118.5Z" fill="#212121"/>
<path d="M52 122.5H56V126.5H52V122.5Z" fill="#212121"/>
<path d="M56 122.5H60V126.5H56V122.5Z" fill="#212121"/>
<path d="M60 122.5H64V126.5H60V122.5Z" fill="#212121"/>
<path d="M64 122.5H68V126.5H64V122.5Z" fill="#212121"/>
<path d="M68 122.5H72V126.5H68V122.5Z" fill="#212121"/>
<path d="M72 122.5H76V126.5H72V122.5Z" fill="#212121"/>
<path d="M24 34.5H28V38.5H24V34.5Z" fill="#212121"/>
<path d="M28 30.5H32V34.5H28V30.5Z" fill="#212121"/>
<path d="M32 26.5H36V30.5H32V26.5Z" fill="#212121"/>
<path d="M36 22.5H40V26.5H36V22.5Z" fill="#212121"/>
<path d="M40 18.5H44V22.5H40V18.5Z" fill="#212121"/>
<path d="M44 14.5H48V18.5H44V14.5Z" fill="#212121"/>
<path d="M48 10.5H52V14.5H48V10.5Z" fill="#212121"/>
<path d="M52 14.5H56V18.5H52V14.5Z" fill="#212121"/>
<path d="M56 18.5H60V22.5H56V18.5Z" fill="#212121"/>
<path d="M48 18.5H52V22.5H48V18.5Z" fill="#212121"/>
<path d="M44 22.5H48V26.5H44V22.5Z" fill="#212121"/>
<path d="M40 26.5H44V30.5H40V26.5Z" fill="#212121"/>
<path d="M36 30.5H40V34.5H36V30.5Z" fill="#212121"/>
<path d="M32 34.5H36V38.5H32V34.5Z" fill="#212121"/>
<path d="M28 38.5H32V42.5H28V38.5Z" fill="#212121"/>
<path d="M24 42.5H28V46.5H24V42.5Z" fill="#212121"/>
<path d="M28 46.5H32V50.5H28V46.5Z" fill="#212121"/>
<path d="M32 42.5H36V46.5H32V42.5Z" fill="#212121"/>
<path d="M36 38.5H40V42.5H36V38.5Z" fill="#212121"/>
<path d="M40 34.5H44V38.5H40V34.5Z" fill="#212121"/>
<path d="M44 30.5H48V34.5H44V30.5Z" fill="#212121"/>
<path d="M48 26.5H52V30.5H48V26.5Z" fill="#212121"/>
<path d="M52 30.5H56V34.5H52V30.5Z" fill="#212121"/>
<path d="M48 34.5H52V38.5H48V34.5Z" fill="#212121"/>
<path d="M40 42.5H44V46.5H40V42.5Z" fill="#212121"/>
<path d="M36 46.5H40V50.5H36V46.5Z" fill="#212121"/>
<path d="M32 50.5H36V54.5H32V50.5Z" fill="#212121"/>
<path d="M28 54.5H32V58.5H28V54.5Z" fill="#212121"/>
<path d="M24 58.5H28V62.5H24V58.5Z" fill="#212121"/>
<path d="M28 62.5H32V66.5H28V62.5Z" fill="#212121"/>
<path d="M32 66.5H36V70.5H32V66.5Z" fill="#212121"/>
<path d="M36 70.5H40V74.5H36V70.5Z" fill="#212121"/>
<path d="M32 74.5H36V78.5H32V74.5Z" fill="#212121"/>
<path d="M28 70.5H32V74.5H28V70.5Z" fill="#212121"/>
<path d="M40 74.5H44V78.5H40V74.5Z" fill="#212121"/>
<path d="M44 78.5H48V82.5H44V78.5Z" fill="#212121"/>
<path d="M48 82.5H52V86.5H48V82.5Z" fill="#212121"/>
<path d="M52 86.5H56V90.5H52V86.5Z" fill="#212121"/>
<path d="M56 82.5H60V86.5H56V82.5Z" fill="#212121"/>
<path d="M60 86.5H64V90.5H60V86.5Z" fill="#212121"/>
<path d="M64 90.5H68V94.5H64V90.5Z" fill="#212121"/>
<path d="M68 94.5H72V98.5H68V94.5Z" fill="#212121"/>
<path d="M72 98.5H76V102.5H72V98.5Z" fill="#212121"/>
<path d="M68 102.5H72V106.5H68V102.5Z" fill="#212121"/>
<path d="M72 106.5H76V110.5H72V106.5Z" fill="#212121"/>
<path d="M76 110.5H80V114.5H76V110.5Z" fill="#212121"/>
<path d="M76 118.5H80V122.5H76V118.5Z" fill="#212121"/>
<path d="M80 118.5H84V122.5H80V118.5Z" fill="#212121"/>
<path d="M84 118.5H88V122.5H84V118.5Z" fill="#212121"/>
<path d="M88 114.5H92V118.5H88V114.5Z" fill="#212121"/>
<path d="M92 114.5H96V118.5H92V114.5Z" fill="#212121"/>
<path d="M96 110.5H100V114.5H96V110.5Z" fill="#212121"/>
<path d="M100 106.5H104V110.5H100V106.5Z" fill="#212121"/>
<path d="M104 102.5H108V106.5H104V102.5Z" fill="#212121"/>
<path d="M108 98.5H112V102.5H108V98.5Z" fill="#212121"/>
<path d="M112 94.5H116V98.5H112V94.5Z" fill="#212121"/>
<path d="M112 90.5H116V94.5H112V90.5Z" fill="#212121"/>
<path d="M116 86.5H120V90.5H116V86.5Z" fill="#212121"/>
<path d="M116 82.5H120V86.5H116V82.5Z" fill="#212121"/>
<path d="M116 78.5H120V82.5H116V78.5Z" fill="#212121"/>
<path d="M120 74.5H124V78.5H120V74.5Z" fill="#212121"/>
<path d="M120 70.5H124V74.5H120V70.5Z" fill="#212121"/>
<path d="M120 66.5H124V70.5H120V66.5Z" fill="#212121"/>
<path d="M116 66.5H120V70.5H116V66.5Z" fill="#212121"/>
<path d="M112 70.5H116V74.5H112V70.5Z" fill="#212121"/>
<path d="M108 66.5H112V70.5H108V66.5Z" fill="#212121"/>
<path d="M104 70.5H108V74.5H104V70.5Z" fill="#212121"/>
<path d="M100 74.5H104V78.5H100V74.5Z" fill="#212121"/>
<path d="M96 70.5H100V74.5H96V70.5Z" fill="#212121"/>
<path d="M100 66.5H104V70.5H100V66.5Z" fill="#212121"/>
<path d="M96 62.5H100V66.5H96V62.5Z" fill="#212121"/>
<path d="M92 58.5H96V62.5H92V58.5Z" fill="#212121"/>
<path d="M104 62.5H108V66.5H104V62.5Z" fill="#212121"/>
<path d="M100 58.5H104V62.5H100V58.5Z" fill="#212121"/>
<path d="M96 54.5H100V58.5H96V54.5Z" fill="#212121"/>
<path d="M108 58.5H112V62.5H108V58.5Z" fill="#212121"/>
<path d="M104 54.5H108V58.5H104V54.5Z" fill="#212121"/>
<path d="M100 50.5H104V54.5H100V50.5Z" fill="#212121"/>
<path d="M112 54.5H116V58.5H112V54.5Z" fill="#212121"/>
<path d="M116 58.5H120V62.5H116V58.5Z" fill="#212121"/>
<path d="M112 62.5H116V66.5H112V62.5Z" fill="#212121"/>
<path d="M92 66.5H96V70.5H92V66.5Z" fill="#212121"/>
<path d="M88 70.5H92V74.5H88V70.5Z" fill="#212121"/>
<path d="M92 74.5H96V78.5H92V74.5Z" fill="#212121"/>
<path d="M88 62.5H92V66.5H88V62.5Z" fill="#212121"/>
<path d="M120 62.5H124V66.5H120V62.5Z" fill="#212121"/>
<path d="M120 58.5H124V62.5H120V58.5Z" fill="#212121"/>
<path d="M120 54.5H124V58.5H120V54.5Z" fill="#212121"/>
<path d="M120 50.5H124V54.5H120V50.5Z" fill="#212121"/>
<path d="M116 46.5H120V50.5H116V46.5Z" fill="#212121"/>
<path d="M72 114.5H76V118.5H72V114.5Z" fill="#212121"/>
<path d="M68 118.5H72V122.5H68V118.5Z" fill="#212121"/>
<path d="M68 110.5H72V114.5H68V110.5Z" fill="#212121"/>
<path d="M76 102.5H80V106.5H76V102.5Z" fill="#212121"/>
<path d="M80 106.5H84V110.5H80V106.5Z" fill="#212121"/>
<path d="M84 102.5H88V106.5H84V102.5Z" fill="#212121"/>
<path d="M80 98.5H84V102.5H80V98.5Z" fill="#212121"/>
<path d="M84 94.5H88V98.5H84V94.5Z" fill="#212121"/>
<path d="M80 90.5H84V94.5H80V90.5Z" fill="#212121"/>
<path d="M76 86.5H80V90.5H76V86.5Z" fill="#212121"/>
<path d="M72 82.5H76V86.5H72V82.5Z" fill="#212121"/>
<path d="M76 94.5H80V98.5H76V94.5Z" fill="#212121"/>
<path d="M72 90.5H76V94.5H72V90.5Z" fill="#212121"/>
<path d="M68 86.5H72V90.5H68V86.5Z" fill="#212121"/>
<path d="M52 78.5H56V82.5H52V78.5Z" fill="#212121"/>
<path d="M56 74.5H60V78.5H56V74.5Z" fill="#212121"/>
<path d="M60 70.5H64V74.5H60V70.5Z" fill="#212121"/>
<path d="M60 62.5H64V66.5H60V62.5Z" fill="#212121"/>
<path d="M60 54.5H64V58.5H60V54.5Z" fill="#212121"/>
<path d="M60 46.5H64V50.5H60V46.5Z" fill="#212121"/>
<path d="M60 38.5H64V42.5H60V38.5Z" fill="#212121"/>
<path d="M60 30.5H64V34.5H60V30.5Z" fill="#212121"/>
<path d="M64 26.5H68V30.5H64V26.5Z" fill="#212121"/>
<path d="M68 30.5H72V34.5H68V30.5Z" fill="#212121"/>
<path d="M64 34.5H68V38.5H64V34.5Z" fill="#212121"/>
<path d="M68 38.5H72V42.5H68V38.5Z" fill="#212121"/>
<path d="M68 46.5H72V50.5H68V46.5Z" fill="#212121"/>
<path d="M64 50.5H68V54.5H64V50.5Z" fill="#212121"/>
<path d="M72 50.5H76V54.5H72V50.5Z" fill="#212121"/>
<path d="M64 58.5H68V62.5H64V58.5Z" fill="#212121"/>
<path d="M56 34.5H60V38.5H56V34.5Z" fill="#212121"/>
<path d="M56 50.5H60V54.5H56V50.5Z" fill="#212121"/>
<path d="M56 58.5H60V62.5H56V58.5Z" fill="#212121"/>
<path d="M52 54.5H56V58.5H52V54.5Z" fill="#212121"/>
<path d="M48 50.5H52V54.5H48V50.5Z" fill="#212121"/>
<path d="M52 46.5H56V50.5H52V46.5Z" fill="#212121"/>
<path d="M52 38.5H56V42.5H52V38.5Z" fill="#212121"/>
<path d="M44 46.5H48V50.5H44V46.5Z" fill="#212121"/>
<path d="M56 66.5H60V70.5H56V66.5Z" fill="#212121"/>
<path d="M52 70.5H56V74.5H52V70.5Z" fill="#212121"/>
<path d="M52 62.5H56V66.5H52V62.5Z" fill="#212121"/>
<path d="M48 66.5H52V70.5H48V66.5Z" fill="#212121"/>
<path d="M44 70.5H48V74.5H44V70.5Z" fill="#212121"/>
<path d="M48 58.5H52V62.5H48V58.5Z" fill="#212121"/>
<path d="M44 62.5H48V66.5H44V62.5Z" fill="#212121"/>
<path d="M40 66.5H44V70.5H40V66.5Z" fill="#212121"/>
<path d="M44 54.5H48V58.5H44V54.5Z" fill="#212121"/>
<path d="M40 58.5H44V62.5H40V58.5Z" fill="#212121"/>
<path d="M36 62.5H40V66.5H36V62.5Z" fill="#212121"/>
<path d="M40 50.5H44V54.5H40V50.5Z" fill="#212121"/>
<path d="M36 54.5H40V58.5H36V54.5Z" fill="#212121"/>
<path d="M32 58.5H36V62.5H32V58.5Z" fill="#212121"/>
<path d="M24 50.5H28V54.5H24V50.5Z" fill="#212121"/>
</svg>
