<svg width="128" height="129" viewBox="0 0 128 129" fill="none" xmlns="http://www.w3.org/2000/svg">
<path d="M22 0.5H106V4.5H22V0.5Z" fill="#212121"/>
<path d="M106 4.5H110V8.5H106V4.5Z" fill="#212121"/>
<path d="M14 8.5H18V108.5H14V8.5Z" fill="#212121"/>
<path d="M110 8.5H114V108.5H110V8.5Z" fill="#212121"/>
<path d="M18 4.5H22V8.5H18V4.5Z" fill="#212121"/>
<path d="M26 16.5H30V20.5H26V16.5Z" fill="#212121"/>
<path d="M98 16.5H102V20.5H98V16.5Z" fill="#212121"/>
<path d="M26 20.5H30V24.5H26V20.5Z" fill="#212121"/>
<path d="M98 20.5H102V24.5H98V20.5Z" fill="#212121"/>
<path d="M26 24.5H30V28.5H26V24.5Z" fill="#212121"/>
<path d="M98 24.5H102V28.5H98V24.5Z" fill="#212121"/>
<path d="M26 28.5H30V32.5H26V28.5Z" fill="#212121"/>
<path d="M46 28.5H50V32.5H46V28.5Z" fill="#212121"/>
<path d="M74 28.5H78V32.5H74V28.5Z" fill="#212121"/>
<path d="M62 28.5H66V32.5H62V28.5Z" fill="#212121"/>
<path d="M62 32.5H66V36.5H62V32.5Z" fill="#212121"/>
<path d="M62 36.5H66V40.5H62V36.5Z" fill="#212121"/>
<path d="M62 40.5H66V44.5H62V40.5Z" fill="#212121"/>
<path d="M62 44.5H66V48.5H62V44.5Z" fill="#212121"/>
<path d="M58 44.5H62V48.5H58V44.5Z" fill="#212121"/>
<path d="M58 56.5H62V60.5H58V56.5Z" fill="#212121"/>
<path d="M54 56.5H58V60.5H54V56.5Z" fill="#212121"/>
<path d="M62 56.5H66V60.5H62V56.5Z" fill="#212121"/>
<path d="M66 56.5H70V60.5H66V56.5Z" fill="#212121"/>
<path d="M70 52.5H74V56.5H70V52.5Z" fill="#212121"/>
<path d="M50 52.5H54V56.5H50V52.5Z" fill="#212121"/>
<path d="M46 32.5H50V36.5H46V32.5Z" fill="#212121"/>
<path d="M74 32.5H78V36.5H74V32.5Z" fill="#212121"/>
<path d="M98 28.5H102V32.5H98V28.5Z" fill="#212121"/>
<path d="M26 32.5H30V36.5H26V32.5Z" fill="#212121"/>
<path d="M98 32.5H102V36.5H98V32.5Z" fill="#212121"/>
<path d="M26 36.5H30V40.5H26V36.5Z" fill="#212121"/>
<path d="M98 36.5H102V40.5H98V36.5Z" fill="#212121"/>
<path d="M26 40.5H30V44.5H26V40.5Z" fill="#212121"/>
<path d="M98 40.5H102V44.5H98V40.5Z" fill="#212121"/>
<path d="M26 44.5H30V48.5H26V44.5Z" fill="#212121"/>
<path d="M98 44.5H102V48.5H98V44.5Z" fill="#212121"/>
<path d="M26 48.5H30V52.5H26V48.5Z" fill="#212121"/>
<path d="M98 48.5H102V52.5H98V48.5Z" fill="#212121"/>
<path d="M26 52.5H30V56.5H26V52.5Z" fill="#212121"/>
<path d="M98 52.5H102V56.5H98V52.5Z" fill="#212121"/>
<path d="M26 56.5H30V60.5H26V56.5Z" fill="#212121"/>
<path d="M98 56.5H102V60.5H98V56.5Z" fill="#212121"/>
<path d="M26 60.5H30V64.5H26V60.5Z" fill="#212121"/>
<path d="M98 60.5H102V64.5H98V60.5Z" fill="#212121"/>
<path d="M26 64.5H30V68.5H26V64.5Z" fill="#212121"/>
<path d="M26 92.5H30V96.5H26V92.5Z" fill="#212121"/>
<path d="M30 92.5H34V96.5H30V92.5Z" fill="#212121"/>
<path d="M74 88.5H78V92.5H74V88.5Z" fill="#212121"/>
<path d="M82 88.5H86V92.5H82V88.5Z" fill="#212121"/>
<path d="M90 88.5H94V92.5H90V88.5Z" fill="#212121"/>
<path d="M78 88.5H82V92.5H78V88.5Z" fill="#212121"/>
<path d="M86 88.5H90V92.5H86V88.5Z" fill="#212121"/>
<path d="M94 88.5H98V92.5H94V88.5Z" fill="#212121"/>
<path d="M22 108.5H106V112.5H22V108.5Z" fill="#212121"/>
<path d="M98 64.5H102V68.5H98V64.5Z" fill="#212121"/>
<path d="M30 68.5H98V72.5H30V68.5Z" fill="#212121"/>
<path d="M30 12.5H34V16.5H30V12.5Z" fill="#212121"/>
<path d="M34 12.5H38V16.5H34V12.5Z" fill="#212121"/>
<path d="M38 12.5H42V16.5H38V12.5Z" fill="#212121"/>
<path d="M42 12.5H46V16.5H42V12.5Z" fill="#212121"/>
<path d="M46 12.5H50V16.5H46V12.5Z" fill="#212121"/>
<path d="M50 12.5H54V16.5H50V12.5Z" fill="#212121"/>
<path d="M54 12.5H58V16.5H54V12.5Z" fill="#212121"/>
<path d="M58 12.5H62V16.5H58V12.5Z" fill="#212121"/>
<path d="M62 12.5H66V16.5H62V12.5Z" fill="#212121"/>
<path d="M66 12.5H70V16.5H66V12.5Z" fill="#212121"/>
<path d="M70 12.5H74V16.5H70V12.5Z" fill="#212121"/>
<path d="M74 12.5H78V16.5H74V12.5Z" fill="#212121"/>
<path d="M78 12.5H82V16.5H78V12.5Z" fill="#212121"/>
<path d="M82 12.5H86V16.5H82V12.5Z" fill="#212121"/>
<path d="M86 12.5H90V16.5H86V12.5Z" fill="#212121"/>
<path d="M90 12.5H94V16.5H90V12.5Z" fill="#212121"/>
<path d="M94 12.5H98V16.5H94V12.5Z" fill="#212121"/>
<path d="M18 108.5H22V128.5H18V108.5Z" fill="#212121"/>
<path d="M106 108.5H110V128.5H106V108.5Z" fill="#212121"/>
<path d="M22 124.5H26V128.5H22V124.5Z" fill="#212121"/>
<path d="M26 124.5H30V128.5H26V124.5Z" fill="#212121"/>
<path d="M30 124.5H34V128.5H30V124.5Z" fill="#212121"/>
<path d="M34 124.5H38V128.5H34V124.5Z" fill="#212121"/>
<path d="M38 124.5H42V128.5H38V124.5Z" fill="#212121"/>
<path d="M42 124.5H46V128.5H42V124.5Z" fill="#212121"/>
<path d="M46 124.5H50V128.5H46V124.5Z" fill="#212121"/>
<path d="M50 124.5H54V128.5H50V124.5Z" fill="#212121"/>
<path d="M54 124.5H58V128.5H54V124.5Z" fill="#212121"/>
<path d="M58 124.5H62V128.5H58V124.5Z" fill="#212121"/>
<path d="M62 124.5H66V128.5H62V124.5Z" fill="#212121"/>
<path d="M66 124.5H70V128.5H66V124.5Z" fill="#212121"/>
<path d="M70 124.5H74V128.5H70V124.5Z" fill="#212121"/>
<path d="M74 124.5H78V128.5H74V124.5Z" fill="#212121"/>
<path d="M78 124.5H82V128.5H78V124.5Z" fill="#212121"/>
<path d="M82 124.5H86V128.5H82V124.5Z" fill="#212121"/>
<path d="M86 124.5H90V128.5H86V124.5Z" fill="#212121"/>
<path d="M90 124.5H94V128.5H90V124.5Z" fill="#212121"/>
<path d="M94 124.5H98V128.5H94V124.5Z" fill="#212121"/>
<path d="M98 124.5H102V128.5H98V124.5Z" fill="#212121"/>
<path d="M102 124.5H106V128.5H102V124.5Z" fill="#212121"/>
<path d="M106 124.5H110V128.5H106V124.5Z" fill="#212121"/>
</svg>
